<svg width="250" height="250" viewBox="0 0 250 250" fill="none" xmlns="http://www.w3.org/2000/svg">
<path d="M125 250C194.036 250 250 194.035 250 125C250 55.9644 194.036 0 125 0C55.9644 0 0 55.9644 0 125C0 194.035 55.9644 250 125 250Z" fill="#E9E7FC"/>
<g clip-path="url(#clip0)">
<path d="M152.329 240.248H216.577L218.405 234.455C219.385 231.236 220.56 226.612 220.886 224.213C221.343 221.287 221.604 197.47 221.604 155.276C221.604 137.989 221.604 125.071 221.552 115.248L209.005 116.77C210.049 118.291 210.441 136.549 209.527 139.593C208.678 142.401 205.61 146.381 203.26 147.785C202.346 148.312 200.518 149.072 199.147 149.483C196.797 150.244 196.732 150.361 196.275 153.696C195.165 161.304 191.183 171.135 186.221 178.626C179.954 187.989 168.529 197.587 158.084 202.327L155.408 203.614L155.146 218.947C154.886 233.167 154.756 234.63 153.384 238.025C153.076 238.774 152.723 239.516 152.329 240.248Z" fill="#4A312C"/>
<path d="M28.3689 155.277C28.3689 197.47 28.63 221.288 29.087 224.214C29.4134 226.613 30.5885 231.236 31.5677 234.455L33.3956 240.249H95.5288C95.1493 239.523 94.8055 238.781 94.4997 238.025C93.1287 234.631 92.9982 233.168 92.7371 218.947L94.8583 199.912L92.7371 199.025C82.2919 194.285 72.3133 187.555 66.0462 178.192C61.0848 170.702 52.7192 161.305 51.6093 153.696C51.1524 150.361 51.0871 150.244 48.7369 149.484C43.906 148.02 40.4461 144.919 38.6834 140.588C37.7695 138.305 37.3779 121.51 38.1612 118.877H28.4042C28.3689 128.197 28.3689 140.04 28.3689 155.277Z" fill="#4A312C"/>
<path d="M56.2943 253.901C54.7872 252.926 54.7872 249.025 56.117 244.858C55.9397 245.213 55.8511 245.568 55.6738 245.922C53.9894 250.443 53.9007 254.965 55.4964 256.029C57.0922 257.092 59.8403 254.344 61.5247 249.823C61.6134 249.468 61.7908 249.114 61.8794 248.759C60.195 252.66 57.8014 254.876 56.2943 253.901Z" fill="#1A1718" fill-opacity="0.3"/>
<path d="M91.4895 206.827C101.33 210.461 103.192 229.522 95.7449 249.38C88.298 269.238 74.3796 282.359 64.5392 278.635C54.6988 275 52.8371 255.94 60.2839 236.082C67.7307 216.224 81.6491 203.192 91.4895 206.827Z" fill="#F3C5AD"/>
<path d="M149.645 196.188C139.805 199.823 137.943 218.883 145.39 238.741C152.837 258.599 166.844 271.72 176.596 267.996C186.436 264.362 188.298 245.301 180.851 225.443C173.404 205.585 159.486 192.553 149.645 196.188Z" fill="#F3C5AD"/>
<path d="M179.028 221.554C181.544 220.395 182.393 217.237 180.797 214.974L168.606 197.683C167.379 195.942 165.085 195.321 163.145 196.204L154.834 199.992C153.589 200.559 152.129 199.9 151.73 198.59C151.44 197.637 150.56 196.985 149.564 196.985H96.4468C95.8662 196.985 95.2912 196.871 94.7546 196.649L86.6429 193.299C84.7122 192.501 82.4868 193.16 81.3012 194.881L67.442 214.986C65.8801 217.252 66.7389 220.378 69.2391 221.529L83.1965 227.949C85.1676 228.856 86.1926 231.055 85.619 233.149L74.5864 273.384C73.8129 276.205 75.9361 278.989 78.8614 278.989H170.428C173.407 278.989 175.538 276.109 174.667 273.26L162.48 233.4C161.831 231.28 162.849 229.006 164.864 228.079L179.028 221.554Z" fill="#6A2FCA"/>
<path d="M123.316 223.139C132.181 223.139 139.45 215.958 139.45 207.004C139.45 198.05 132.27 190.869 123.316 190.869C114.45 190.869 107.181 198.05 107.181 207.004C107.181 215.958 114.45 223.139 123.316 223.139Z" fill="white"/>
<path d="M123.316 220.213C130.674 220.213 136.525 214.716 136.525 207.89C136.525 201.064 130.585 195.567 123.316 195.567C116.046 195.567 110.106 201.064 110.106 207.89C110.106 214.716 115.958 220.213 123.316 220.213Z" fill="url(#paint0_linear)"/>
<path d="M125.899 209.752C169.77 207.447 201.241 179.078 204.093 143.44C204.093 106.826 169.04 77.1279 125.899 77.1279C82.7573 77.1279 47.7048 106.826 47.7048 143.44C53.1915 178.192 82.8901 206.117 125.899 209.752Z" fill="#F3C5AD"/>
<path d="M48.1135 150.089C54.6501 150.089 59.8794 144.326 59.8794 137.323C59.8794 130.23 54.5684 124.557 48.1135 124.557C41.6586 124.557 36.3477 130.23 36.3477 137.323C36.3477 144.326 41.6586 150.089 48.1135 150.089Z" fill="#F3C5AD"/>
<path d="M201.887 150.089C208.423 150.089 213.653 144.326 213.653 137.323C213.653 130.23 208.342 124.557 201.887 124.557C195.35 124.557 190.121 130.319 190.121 137.323C190.039 144.326 195.35 150.089 201.887 150.089Z" fill="#F3C5AD"/>
<path d="M187.555 146.986C187.555 155.231 181.509 136.348 173.992 136.348C166.557 136.348 160.428 155.231 160.428 146.986C160.428 138.741 166.474 132.004 173.992 132.004C181.509 132.004 187.555 138.741 187.555 146.986Z" fill="#190E02"/>
<path d="M173.257 119.504C182.894 119.504 190.815 126.685 191.55 135.904C191.55 135.461 191.631 135.107 191.631 134.663C191.631 124.912 183.383 117.021 173.339 117.021C163.213 117.021 154.965 124.912 154.965 134.663C154.965 135.107 154.965 135.55 155.046 135.904C155.7 126.773 163.621 119.504 173.257 119.504Z" fill="#190E02"/>
<path d="M91.255 147.872C91.255 156.117 85.2087 137.234 77.6916 137.234C70.1745 137.234 64.1282 156.117 64.1282 147.872C64.1282 139.627 70.1745 132.89 77.6916 132.89C85.2087 132.89 91.255 139.627 91.255 147.872Z" fill="#190E02"/>
<path d="M78.1001 122.163C87.8232 122.163 95.7488 129.344 96.4026 138.564C96.4026 138.12 96.4842 137.766 96.4842 137.322C96.4842 127.571 88.2318 119.681 78.1001 119.681C67.9683 119.681 59.7976 127.571 59.7976 137.322C59.7976 137.766 59.7976 138.209 59.8793 138.564C60.4513 129.432 68.3769 122.163 78.1001 122.163Z" fill="#190E02"/>
<path d="M126.308 152.925C128.432 152.925 130.23 154.521 130.556 156.737C130.638 156.383 130.638 156.117 130.638 155.762C130.638 153.191 128.677 151.063 126.308 151.063C123.856 151.063 121.977 153.191 121.977 155.762C121.977 156.117 121.977 156.383 122.059 156.737C122.467 154.521 124.183 152.925 126.308 152.925Z" fill="#1A1718" fill-opacity="0.3"/>
<path d="M126.308 160.461C146.081 160.461 162.095 158.51 162.095 156.206C162.095 153.812 146.081 151.95 126.308 151.95C106.534 151.95 90.5198 153.812 90.5198 156.206C90.5198 158.599 106.534 160.461 126.308 160.461Z" fill="#1A1718" fill-opacity="0.05"/>
<path d="M146.277 176.214C146.277 181.718 136.543 186.17 124.557 186.17C112.571 186.17 102.837 181.718 102.837 176.214C102.837 170.71 112.571 172.157 124.557 172.157C136.543 172.157 146.277 170.71 146.277 176.214Z" stroke="#A48677" stroke-width="3"/>
<path d="M119.238 203.014C119.972 203.014 120.568 202.419 120.568 201.684C120.568 200.95 119.972 200.354 119.238 200.354C118.503 200.354 117.908 200.95 117.908 201.684C117.908 202.419 118.503 203.014 119.238 203.014Z" fill="#9D8173"/>
<path d="M219.14 94.718C219.589 96.1535 219.975 97.3884 220.307 98.6345C221.62 103.561 221.463 113.617 221.631 131.972L214.096 134.752C213.571 133.945 207.145 132.951 202.228 131.972C198.491 131.28 192.329 129.781 188.528 128.629C184.332 127.419 181.054 126.785 180.137 127.015C179.022 127.246 178.105 126.9 176.531 125.631C175.351 124.652 171.614 122.75 168.206 121.424L148.737 112.029C143.034 109.436 127.629 98.8884 119.501 92.0872C116.092 89.1478 115.764 89.0326 116.42 90.5888C117.796 93.8164 122.45 100.906 126.711 106.381L130.907 111.741L125.073 109.032C114.256 104.018 105.013 95.776 99.6381 86.3813C98.3927 84.2488 97.4093 82.1162 97.4093 81.6552C97.4093 81.194 96.4261 82.635 95.2461 84.8251C83.7089 106.9 65.2887 124.248 44.1808 132.951C40.1165 134.623 35.3456 137.376 35.0178 138.298L28.3689 132.951C28.4935 109.686 28.9178 104.055 30.3624 98.6345C30.6944 97.3887 31.0803 96.154 31.5288 94.7189L31.5947 94.5081C33.6268 88.1681 37.5599 79.7532 41.231 74.2777C51.6537 58.3701 68.8286 45.229 88.0354 38.3127C100.818 33.7018 111.306 31.915 125.334 31.915C139.363 31.915 149.851 33.7018 162.634 38.3127C178.17 43.9034 193.182 54.1626 203.474 66.2086C210.028 73.8742 215.994 84.7099 219.075 94.5081L219.14 94.718Z" fill="#4A312C"/>
<path d="M92.1987 162.5V175.798H150V162.5H92.1987Z" fill="#F3C5AD"/>
</g>
<defs>
<linearGradient id="paint0_linear" x1="123.316" y1="195.567" x2="123.316" y2="220.213" gradientUnits="userSpaceOnUse">
<stop offset="0.213542" stop-color="#D9B09A"/>
<stop offset="1" stop-color="#F3C5AD"/>
</linearGradient>
<clipPath id="clip0">
<rect width="193.262" height="218.085" fill="white" transform="translate(28.3689 31.915)"/>
</clipPath>
</defs>
</svg>
