<?xml version="1.0" standalone="no"?>
<!DOCTYPE svg PUBLIC "-//W3C//DTD SVG 20010904//EN"
 "http://www.w3.org/TR/2001/REC-SVG-20010904/DTD/svg10.dtd">
<svg version="1.0" xmlns="http://www.w3.org/2000/svg"
 width="512.000000pt" height="512.000000pt" viewBox="0 0 512.000000 512.000000"
 preserveAspectRatio="xMidYMid meet">
<metadata>
Created by potrace 1.16, written by Peter Selinger 2001-2019
</metadata>
<g transform="translate(0.000000,512.000000) scale(0.100000,-0.100000)"
fill="#000000" stroke="none">
<path d="M3593 4216 c-377 -72 -601 -343 -699 -846 -10 -52 -19 -97 -20 -98
-2 -2 -29 12 -61 31 -151 88 -379 151 -695 193 -166 22 -632 30 -868 15 -447
-28 -852 -107 -1006 -196 -62 -36 -69 -49 -55 -94 18 -62 31 -67 104 -41 56
21 84 24 287 27 264 5 277 2 320 -82 23 -46 24 -62 31 -275 4 -124 13 -265 19
-315 23 -168 1 -258 -75 -305 -50 -31 -87 -39 -219 -50 -146 -11 -160 -20
-145 -91 18 -83 23 -84 240 -81 180 3 191 2 229 -19 23 -13 46 -37 56 -57 28
-59 64 -358 64 -532 0 -89 18 -231 46 -363 20 -90 8 -84 172 -90 l113 -5 -5
52 c-3 28 -8 92 -12 141 -3 50 -19 149 -35 220 -29 130 -52 317 -64 516 l-5
106 232 6 c314 7 540 43 684 107 58 26 104 68 104 95 0 23 -60 64 -113 79
-119 34 -214 39 -578 32 l-357 -6 -27 32 c-65 76 -85 184 -84 436 0 103 4 227
8 276 6 87 7 89 46 122 90 79 270 102 655 86 285 -12 295 -14 630 -116 102
-30 219 -64 260 -74 l75 -18 -3 -40 c-1 -21 -9 -133 -17 -249 -9 -115 -18
-256 -22 -312 -7 -113 -11 -122 -76 -143 -49 -16 -64 -48 -41 -93 9 -18 46
-67 82 -110 l66 -78 2 -252 c1 -273 16 -416 59 -590 29 -115 78 -219 118 -253
36 -31 88 -32 129 -2 l31 21 -8 106 c-3 58 -27 214 -51 346 -57 308 -74 440
-74 574 0 122 12 150 77 177 87 37 578 42 818 9 353 -48 519 -59 651 -42 l61
8 11 -53 c24 -110 34 -219 35 -398 2 -179 0 -191 -37 -375 -46 -221 -54 -352
-23 -382 24 -24 101 -21 153 5 21 11 57 39 78 61 35 36 41 49 52 118 30 188
38 401 26 674 -19 416 -58 741 -128 1067 -119 554 -272 909 -491 1142 -113
120 -209 185 -343 230 -84 28 -281 36 -387 16z m229 -207 c77 -16 204 -81 279
-143 269 -224 475 -733 515 -1272 8 -104 -7 -206 -37 -265 -17 -35 -23 -39
-58 -39 -21 0 -357 18 -746 40 -389 22 -723 40 -742 40 l-36 0 6 278 c3 152
10 313 17 357 34 243 44 299 70 400 83 330 243 544 449 601 58 15 213 17 283
3z"/>
</g>
</svg>
